<?xml version="1.0" standalone="no"?>
<!DOCTYPE svg PUBLIC "-//W3C//DTD SVG 20010904//EN"
 "http://www.w3.org/TR/2001/REC-SVG-20010904/DTD/svg10.dtd">
<svg version="1.0" xmlns="http://www.w3.org/2000/svg"
 width="260.000000pt" height="260.000000pt" viewBox="0 0 260.000000 260.000000"
 preserveAspectRatio="xMidYMid meet">
<metadata>
Created by potrace 1.11, written by Peter Selinger 2001-2013
</metadata>
<g transform="translate(0.000000,260.000000) scale(0.100000,-0.100000)"
fill="#000000" stroke="none">
<path d="M1163 2555 c-39 -17 -53 -42 -53 -93 0 -44 38 -92 71 -92 17 0 19 -9
19 -94 l0 -94 -47 -7 c-91 -13 -234 -67 -321 -122 l-86 -54 -62 62 c-51 51
-61 66 -53 80 5 10 9 34 9 54 0 71 -79 117 -143 84 -32 -16 -156 -139 -173
-171 -23 -44 -18 -86 15 -119 31 -30 83 -39 120 -20 14 8 30 -2 80 -53 l63
-63 -42 -62 c-59 -86 -105 -197 -126 -302 l-18 -89 -93 0 c-87 0 -93 1 -93 20
0 36 -44 70 -90 70 -87 0 -110 -39 -110 -190 0 -151 23 -190 110 -190 46 0 90
34 90 70 0 19 6 20 94 20 l94 0 7 -48 c13 -90 67 -233 122 -320 l54 -86 -62
-62 c-51 -51 -66 -61 -80 -53 -37 19 -89 10 -120 -20 -33 -33 -38 -75 -15
-119 17 -32 141 -155 173 -171 64 -33 143 13 143 84 0 20 -4 44 -9 54 -8 14 2
29 53 80 l62 62 86 -54 c87 -55 230 -109 321 -122 l47 -7 0 -94 c0 -88 -1 -94
-20 -94 -36 0 -70 -44 -70 -90 0 -87 39 -110 190 -110 150 0 190 23 190 108 0
44 -38 92 -71 92 -17 0 -19 9 -19 94 l0 94 48 7 c90 13 233 67 320 122 l86 54
62 -62 c51 -51 61 -66 53 -80 -5 -10 -9 -34 -9 -54 0 -71 79 -117 143 -84 32
16 156 139 173 171 23 44 18 86 -15 119 -31 30 -83 39 -120 20 -14 -8 -30 2
-81 54 l-62 63 29 43 c70 101 132 254 148 362 l7 47 94 0 c85 0 94 -2 94 -19
0 -10 12 -30 26 -45 37 -36 104 -37 139 -1 24 23 25 29 25 165 0 136 -1 142
-25 165 -35 36 -102 35 -139 -1 -14 -15 -26 -35 -26 -45 0 -17 -9 -19 -95 -19
-90 0 -95 1 -95 21 0 80 -75 277 -144 378 l-37 54 62 63 c51 51 66 61 80 53
10 -5 34 -9 54 -9 54 0 95 44 95 101 0 41 -5 48 -93 136 -88 88 -95 93 -136
93 -57 0 -101 -41 -101 -95 0 -20 4 -44 9 -54 8 -14 -2 -29 -53 -80 l-62 -62
-69 45 c-90 60 -200 105 -302 125 l-83 16 0 93 c0 86 1 92 20 92 36 0 70 44
70 90 0 88 -39 110 -192 110 -65 -1 -115 -6 -135 -15z m-32 -770 c38 -20 69
-71 69 -114 0 -25 -9 -42 -39 -72 -33 -33 -45 -39 -81 -39 -36 0 -48 6 -81 39
-29 29 -39 47 -39 70 0 44 25 88 63 111 39 24 68 25 108 5z m439 0 c65 -34 89
-105 54 -165 -39 -66 -121 -79 -178 -29 -64 56 -56 145 16 189 39 24 69 25
108 5z m-626 -404 c26 -27 31 -39 31 -81 0 -43 -5 -54 -33 -82 -28 -29 -39
-33 -83 -33 -46 0 -54 4 -85 37 -44 49 -47 101 -7 148 34 40 58 51 107 46 27
-3 49 -14 70 -35z m443 -5 c47 -50 46 -102 -1 -154 -31 -33 -39 -37 -85 -37
-44 0 -55 4 -83 33 -28 28 -33 39 -33 81 0 52 25 92 70 112 40 18 98 2 132
-35z m434 5 c33 -33 39 -45 39 -81 0 -36 -6 -48 -39 -81 -30 -30 -47 -39 -72
-39 -63 0 -129 61 -129 120 0 59 66 120 129 120 25 0 42 -9 72 -39z m-660
-380 c30 -30 39 -47 39 -72 0 -64 -61 -129 -122 -129 -33 0 -85 35 -103 69
-26 52 -20 89 24 132 33 33 45 39 81 39 36 0 48 -6 81 -39z m419 23 c59 -35
78 -118 39 -168 -25 -31 -69 -56 -101 -56 -35 0 -86 36 -104 74 -48 101 69
207 166 150z"/>
</g>
</svg>
